<svg xmlns="http://www.w3.org/2000/svg" width="81.471" height="77.829" viewBox="0 0 81.471 77.829">
  <path id="Pencil-Edit-Icon-09uhj" d="M.559,76.2a2.011,2.011,0,0,1-.509-1.833L5.255,51.042a2.011,2.011,0,0,1,.6-1.027L5.848,50l50.43-47.14a10.671,10.671,0,0,1,15.052.5L77.6,10.074a10.671,10.671,0,0,1-.506,15.055L26.654,72.269l-.02-.019a2,2,0,0,1-1.013.535L2.363,76.8a2.329,2.329,0,0,1-.344.028A2.02,2.02,0,0,1,.559,76.2Zm4.089-3.893,3.267-.565a5.991,5.991,0,0,0-2.542-2.69Zm1.632-7.314a10.182,10.182,0,0,1,5.727,6.044l11.1-1.917a3.8,3.8,0,0,0-1.147-2.254,3.716,3.716,0,0,0-2.6-.733,1.978,1.978,0,0,1-1.741-.582,2.013,2.013,0,0,1-.549-1.751,2.9,2.9,0,0,0-.453-2.6,5.2,5.2,0,0,0-3.4-1.29H13.21a2.019,2.019,0,0,1-1.993-2.349,3.388,3.388,0,0,0-.49-2.857A3.665,3.665,0,0,0,8.8,53.679Zm5.134-14.664a6.934,6.934,0,0,1,2.337,1.694,6.555,6.555,0,0,1,1.584,4.1A7.912,7.912,0,0,1,19.7,58.591a6.373,6.373,0,0,1,1.461,3.622,6.972,6.972,0,0,1,5.461,4.559L63,32.77,47.7,16.4ZM50.655,13.645l15.3,16.368,1.19-1.111-15.3-16.366Zm8.377-7.832L54.791,9.777l15.3,16.368,4.243-3.966a6.628,6.628,0,0,0,.311-9.351l-6.264-6.7a6.63,6.63,0,0,0-9.348-.314ZM25.781,57.4,27.4,55.887l2.759,2.947L28.542,60.35Zm5.436-5.088,23.46-21.924,2.759,2.951L33.976,55.265Z" transform="translate(0.509 0.501)" stroke="rgba(0,0,0,0)" stroke-miterlimit="10" stroke-width="1"/>
</svg>
